<svg width="16" height="16" viewBox="0 0 16 16" fill="none" xmlns="http://www.w3.org/2000/svg">
<g clip-path="url(#clip0)">
<path d="M4.00003 0C3.68443 0 3.42859 0.255837 3.42859 0.571439V1.71428H4.57143V0.571439C4.57143 0.255837 4.3156 0 4.00003 0Z" fill="#001514"/>
<path d="M12 0C11.6844 0 11.4285 0.255837 11.4285 0.571439V1.71428H12.5714V0.571439C12.5714 0.255837 12.3156 0 12 0Z" fill="#001514"/>
<path d="M14.2857 1.71423H12.5714V3.99996C12.5714 4.31556 12.3156 4.5714 12 4.5714C11.6844 4.5714 11.4286 4.31556 11.4286 3.99996V1.71423H4.57141V3.99996C4.57141 4.31556 4.31558 4.5714 3.99997 4.5714C3.68437 4.5714 3.42854 4.31556 3.42854 3.99996V1.71423H1.71428C0.767511 1.71423 0 2.48174 0 3.42852V14.2857C0 15.2324 0.767511 15.9999 1.71428 15.9999H14.2857C15.2325 15.9999 16 15.2324 16 14.2857V3.42852C16 2.48174 15.2325 1.71423 14.2857 1.71423ZM14.8571 14.2857C14.8571 14.6013 14.6013 14.8571 14.2857 14.8571H1.71428C1.39868 14.8571 1.14285 14.6013 1.14285 14.2857V6.85709H14.8571V14.2857Z" fill="#001514"/>
<path d="M4.5714 8H3.42856C3.11295 8 2.85712 8.25584 2.85712 8.57144C2.85712 8.88704 3.11295 9.14288 3.42856 9.14288H4.5714C4.887 9.14288 5.14284 8.88704 5.14284 8.57144C5.14284 8.25584 4.887 8 4.5714 8Z" fill="#001514"/>
<path d="M8.5714 8H7.42856C7.11295 8 6.85712 8.25584 6.85712 8.57144C6.85712 8.88704 7.11295 9.14288 7.42856 9.14288H8.5714C8.887 9.14288 9.14284 8.88704 9.14284 8.57144C9.14284 8.25584 8.887 8 8.5714 8Z" fill="#001514"/>
<path d="M12.5715 8H11.4286C11.113 8 10.8572 8.25584 10.8572 8.57144C10.8572 8.88704 11.113 9.14288 11.4286 9.14288H12.5715C12.8871 9.14288 13.1429 8.88704 13.1429 8.57144C13.1429 8.25584 12.887 8 12.5715 8Z" fill="#001514"/>
<path d="M4.5714 10.2858H3.42856C3.11295 10.2858 2.85712 10.5416 2.85712 10.8572C2.85712 11.1728 3.11295 11.4286 3.42856 11.4286H4.5714C4.887 11.4286 5.14284 11.1728 5.14284 10.8572C5.14284 10.5416 4.887 10.2858 4.5714 10.2858Z" fill="#001514"/>
<path d="M8.5714 10.2858H7.42856C7.11295 10.2858 6.85712 10.5416 6.85712 10.8572C6.85712 11.1728 7.11295 11.4286 7.42856 11.4286H8.5714C8.887 11.4286 9.14284 11.1728 9.14284 10.8572C9.14284 10.5416 8.887 10.2858 8.5714 10.2858Z" fill="#001514"/>
<path d="M12.5715 10.2858H11.4286C11.113 10.2858 10.8572 10.5416 10.8572 10.8572C10.8572 11.1728 11.113 11.4286 11.4286 11.4286H12.5715C12.8871 11.4286 13.1429 11.1728 13.1429 10.8572C13.1429 10.5416 12.887 10.2858 12.5715 10.2858Z" fill="#001514"/>
<path d="M4.5714 12.5714H3.42856C3.11295 12.5714 2.85712 12.8272 2.85712 13.1429C2.85712 13.4585 3.11295 13.7143 3.42856 13.7143H4.5714C4.887 13.7143 5.14284 13.4584 5.14284 13.1428C5.14284 12.8272 4.887 12.5714 4.5714 12.5714Z" fill="#001514"/>
<path d="M8.5714 12.5714H7.42856C7.11295 12.5714 6.85712 12.8272 6.85712 13.1428C6.85712 13.4585 7.11295 13.7143 7.42856 13.7143H8.5714C8.887 13.7143 9.14284 13.4585 9.14284 13.1428C9.14284 12.8272 8.887 12.5714 8.5714 12.5714Z" fill="#001514"/>
<path d="M12.5715 12.5714H11.4286C11.113 12.5714 10.8572 12.8272 10.8572 13.1428C10.8572 13.4585 11.113 13.7143 11.4286 13.7143H12.5715C12.8871 13.7143 13.1429 13.4585 13.1429 13.1428C13.1429 12.8272 12.887 12.5714 12.5715 12.5714Z" fill="#001514"/>
</g>
<defs>
<clipPath id="clip0">
<rect width="16" height="16" fill="white"/>
</clipPath>
</defs>
</svg>
