<svg width="16" height="16" viewBox="0 0 16 16" fill="none" xmlns="http://www.w3.org/2000/svg">
<g clip-path="url(#clip0)">
<path d="M14.0251 0H1.9751C1.71622 0 1.50635 0.209875 1.50635 0.46875V15.5312C1.50635 15.6937 1.59047 15.8446 1.72866 15.93C1.86688 16.0154 2.03944 16.0232 2.18475 15.9505L8.0001 13.0428L13.8155 15.9505C13.8816 15.9836 13.9534 16 14.0251 16C14.1108 16 14.1963 15.9765 14.2716 15.93C14.4098 15.8446 14.4939 15.6937 14.4939 15.5312V0.46875C14.4938 0.209875 14.2839 0 14.0251 0ZM11.3398 6.00572L10.0101 7.30188L10.3197 9.10659C10.3273 9.14028 10.3314 9.17531 10.3314 9.21134C10.3314 9.46991 10.122 9.67959 9.86353 9.68009C9.863 9.68009 9.8625 9.68009 9.86197 9.68009C9.78735 9.68009 9.7125 9.66231 9.64391 9.62625L8.0001 8.76225L6.35635 9.62625C6.28779 9.66228 6.21288 9.68009 6.13829 9.68009C6.0411 9.68009 5.94438 9.64991 5.86269 9.59056C5.71838 9.48566 5.64607 9.30794 5.67625 9.13209L5.99025 7.30191L4.66038 6.00575C4.5326 5.88122 4.4866 5.69491 4.54175 5.52522C4.59691 5.3555 4.7436 5.23181 4.92016 5.20619L6.75794 4.93913L7.57969 3.27384C7.65866 3.11384 7.8216 3.01253 8.00004 3.01253C8.17847 3.01253 8.34144 3.11381 8.42038 3.27381L9.24229 4.93913L11.08 5.20619C11.2565 5.23181 11.4033 5.3555 11.4584 5.52519C11.5136 5.69487 11.4676 5.88116 11.3398 6.00572Z" fill="#FFFCF2"/>
</g>
<defs>
<clipPath id="clip0">
<rect width="16" height="16" fill="white"/>
</clipPath>
</defs>
</svg>
