<svg width="250" height="111" viewBox="0 0 250 111" fill="none" xmlns="http://www.w3.org/2000/svg">
<path d="M202.028 58.1579C302.97 96.5038 218.412 111 185.177 111C151.942 111 125 90.9836 125 58.1579C125 25.3323 151.942 0 185.177 0C218.412 0 174.204 31.3158 202.028 58.1579Z" fill="#001514"/>
<path d="M9.144 68.324C6.696 68.324 4.824 67.568 3.528 66.056C2.256 64.544 1.548 62.468 1.404 59.828L5.004 58.856C5.124 60.728 5.484 62.24 6.084 63.392C6.708 64.544 7.728 65.12 9.144 65.12C10.2 65.12 10.992 64.832 11.52 64.256C12.072 63.656 12.348 62.804 12.348 61.7C12.348 60.5 12.096 59.504 11.592 58.712C11.088 57.92 10.284 57.044 9.18 56.084L4.284 51.764C3.3 50.9 2.58 49.976 2.124 48.992C1.692 47.984 1.476 46.76 1.476 45.32C1.476 43.184 2.088 41.528 3.312 40.352C4.536 39.176 6.204 38.588 8.316 38.588C10.62 38.588 12.36 39.2 13.536 40.424C14.712 41.648 15.42 43.544 15.66 46.112L12.204 47.048C12.084 45.344 11.748 44.036 11.196 43.124C10.668 42.188 9.708 41.72 8.316 41.72C7.284 41.72 6.492 41.996 5.94 42.548C5.388 43.076 5.112 43.868 5.112 44.924C5.112 45.788 5.256 46.52 5.544 47.12C5.832 47.696 6.324 48.284 7.02 48.884L11.952 53.204C13.224 54.332 14.232 55.556 14.976 56.876C15.744 58.196 16.128 59.696 16.128 61.376C16.128 63.512 15.48 65.204 14.184 66.452C12.888 67.7 11.208 68.324 9.144 68.324ZM24.7196 68.288C23.1116 68.288 21.8636 67.988 20.9756 67.388C20.0876 66.764 19.4636 65.852 19.1036 64.652C18.7436 63.452 18.5636 61.892 18.5636 59.972V55.22C18.5636 52.34 19.0076 50.24 19.8956 48.92C20.8076 47.576 22.4156 46.904 24.7196 46.904C26.3996 46.904 27.6596 47.252 28.4996 47.948C29.3636 48.644 29.9276 49.628 30.1916 50.9C30.4796 52.148 30.6236 53.84 30.6236 55.976V57.668H22.4156V61.844C22.4156 63.116 22.5956 64.04 22.9556 64.616C23.3396 65.168 23.9396 65.444 24.7556 65.444C25.5716 65.444 26.1236 65.168 26.4116 64.616C26.6996 64.04 26.8436 63.176 26.8436 62.024V60.764H30.5876V61.556C30.5876 63.74 30.1196 65.408 29.1836 66.56C28.2476 67.712 26.7596 68.288 24.7196 68.288ZM26.8436 55.58V53.708C26.8436 52.292 26.6996 51.284 26.4116 50.684C26.1476 50.06 25.5716 49.748 24.6836 49.748C24.0596 49.748 23.5796 49.892 23.2436 50.18C22.9316 50.468 22.7156 50.948 22.5956 51.62C22.4756 52.268 22.4156 53.216 22.4156 54.464V55.58H26.8436ZM34.472 38.84H38.324V68H34.472V38.84ZM43.5625 50.036H41.0785V47.192H43.5625V46.112C43.5625 44.672 43.6705 43.52 43.8865 42.656C44.1025 41.768 44.5345 41.084 45.1825 40.604C45.8545 40.124 46.8145 39.884 48.0625 39.884C48.9025 39.884 49.7425 39.968 50.5825 40.136V42.944C50.1025 42.824 49.6225 42.764 49.1425 42.764C48.4465 42.764 47.9785 42.992 47.7385 43.448C47.5225 43.88 47.4145 44.552 47.4145 45.464V47.192H50.5825V50.036H47.4145V68H43.5625V50.036ZM52.4945 55.688H60.5225V58.604H52.4945V55.688ZM64.5649 38.84H70.9009C74.0449 38.84 76.2649 39.56 77.5609 41C78.8809 42.44 79.5409 44.684 79.5409 47.732V58.46C79.5409 61.676 78.8929 64.076 77.5969 65.66C76.3249 67.22 74.2009 68 71.2249 68H64.5649V38.84ZM70.9369 65.084C72.3529 65.084 73.3729 64.808 73.9969 64.256C74.6449 63.704 75.0409 62.96 75.1849 62.024C75.3529 61.064 75.4369 59.624 75.4369 57.704V48.236C75.4369 46.58 75.3289 45.32 75.1129 44.456C74.9209 43.568 74.5009 42.92 73.8529 42.512C73.2049 42.08 72.1969 41.864 70.8289 41.864H68.6329V65.084H70.9369ZM83.4773 40.064H87.3293V44.096H83.4773V40.064ZM83.4773 47.192H87.3293V68H83.4773V47.192ZM96.2758 68.288C94.5958 68.288 93.2278 67.76 92.1718 66.704C91.1398 65.648 90.5518 64.232 90.4078 62.456L93.6118 61.484C93.8038 62.828 94.1278 63.824 94.5838 64.472C95.0638 65.12 95.7358 65.444 96.5998 65.444C97.2718 65.444 97.7878 65.252 98.1478 64.868C98.5318 64.46 98.7238 63.92 98.7238 63.248C98.7238 62.648 98.5918 62.108 98.3278 61.628C98.0638 61.148 97.6318 60.656 97.0318 60.152L93.4678 57.092C92.6518 56.396 92.0158 55.664 91.5598 54.896C91.1278 54.104 90.9118 53.144 90.9118 52.016C90.9118 50.408 91.3918 49.16 92.3518 48.272C93.3118 47.36 94.6198 46.904 96.2758 46.904C97.8598 46.904 99.0958 47.42 99.9838 48.452C100.896 49.46 101.424 50.768 101.568 52.376L98.9758 53.348C98.8078 52.172 98.5318 51.284 98.1478 50.684C97.7638 50.06 97.1878 49.748 96.4198 49.748C95.7958 49.748 95.2918 49.952 94.9078 50.36C94.5478 50.768 94.3678 51.272 94.3678 51.872C94.3678 52.64 94.7158 53.336 95.4118 53.96L99.0838 57.344C100.02 58.208 100.74 59.06 101.244 59.9C101.772 60.74 102.036 61.76 102.036 62.96C102.036 64.688 101.52 66.008 100.488 66.92C99.4558 67.832 98.0518 68.288 96.2758 68.288ZM110.605 68.288C108.973 68.288 107.713 67.964 106.825 67.316C105.937 66.644 105.325 65.72 104.989 64.544C104.677 63.344 104.521 61.832 104.521 60.008V55.22C104.521 53.348 104.677 51.812 104.989 50.612C105.325 49.412 105.937 48.5 106.825 47.876C107.713 47.228 108.973 46.904 110.605 46.904C112.093 46.904 113.245 47.144 114.061 47.624C114.901 48.104 115.477 48.824 115.789 49.784C116.125 50.72 116.293 51.944 116.293 53.456V54.68H112.801V53.42C112.801 52.052 112.645 51.104 112.333 50.576C112.045 50.024 111.481 49.748 110.641 49.748C109.993 49.748 109.513 49.892 109.201 50.18C108.889 50.468 108.673 50.936 108.553 51.584C108.433 52.232 108.373 53.18 108.373 54.428V60.98C108.373 62.18 108.445 63.104 108.589 63.752C108.733 64.376 108.961 64.82 109.273 65.084C109.609 65.324 110.077 65.444 110.677 65.444C111.565 65.444 112.141 65.156 112.405 64.58C112.669 63.98 112.801 63.068 112.801 61.844V60.152H116.293V61.592C116.293 63.848 115.873 65.528 115.033 66.632C114.217 67.736 112.741 68.288 110.605 68.288ZM119.969 40.064H123.821V44.096H119.969V40.064ZM119.969 47.192H123.821V68H119.969V47.192Z" fill="#001514"/>
<path d="M127.944 47.192H131.796V48.848C132.924 47.552 134.244 46.904 135.756 46.904C137.652 46.904 138.912 47.72 139.536 49.352C140.184 50.96 140.508 52.748 140.508 54.716V59.756C140.508 62.3 140.112 64.364 139.32 65.948C138.552 67.508 137.22 68.288 135.324 68.288C134.1 68.288 132.924 67.676 131.796 66.452V74.84H127.944V47.192ZM134.568 65.264C135.456 65.264 136.02 64.82 136.26 63.932C136.524 63.02 136.656 61.628 136.656 59.756V54.716C136.656 53.18 136.512 52.004 136.224 51.188C135.936 50.348 135.336 49.928 134.424 49.928C133.536 49.928 132.66 50.288 131.796 51.008V64.328C132.636 64.952 133.56 65.264 134.568 65.264ZM144.37 38.84H148.222V68H144.37V38.84ZM152.489 40.064H156.341V44.096H152.489V40.064ZM152.489 47.192H156.341V68H152.489V47.192ZM160.464 47.192H164.316V49.244C165.972 47.684 167.664 46.904 169.392 46.904C170.52 46.904 171.324 47.312 171.804 48.128C172.284 48.944 172.524 49.952 172.524 51.152V68H168.672V52.268C168.672 51.476 168.552 50.888 168.312 50.504C168.072 50.12 167.64 49.928 167.016 49.928C166.248 49.928 165.348 50.36 164.316 51.224V68H160.464V47.192ZM182.044 68.288C180.436 68.288 179.188 67.988 178.3 67.388C177.412 66.764 176.788 65.852 176.428 64.652C176.068 63.452 175.888 61.892 175.888 59.972V55.22C175.888 52.34 176.332 50.24 177.22 48.92C178.132 47.576 179.74 46.904 182.044 46.904C183.724 46.904 184.984 47.252 185.824 47.948C186.688 48.644 187.252 49.628 187.516 50.9C187.804 52.148 187.948 53.84 187.948 55.976V57.668H179.74V61.844C179.74 63.116 179.92 64.04 180.28 64.616C180.664 65.168 181.264 65.444 182.08 65.444C182.896 65.444 183.448 65.168 183.736 64.616C184.024 64.04 184.168 63.176 184.168 62.024V60.764H187.912V61.556C187.912 63.74 187.444 65.408 186.508 66.56C185.572 67.712 184.084 68.288 182.044 68.288ZM184.168 55.58V53.708C184.168 52.292 184.024 51.284 183.736 50.684C183.472 50.06 182.896 49.748 182.008 49.748C181.384 49.748 180.904 49.892 180.568 50.18C180.256 50.468 180.04 50.948 179.92 51.62C179.8 52.268 179.74 53.216 179.74 54.464V55.58H184.168Z" fill="#FFFCF2"/>
</svg>
