<svg width="160" height="160" viewBox="0 0 160 160" fill="none" xmlns="http://www.w3.org/2000/svg">
<path d="M37.2105 85.3995C39.0078 83.0938 39.9888 80.2568 39.9998 77.3335C39.9998 69.9699 34.0302 64.0002 26.6666 64.0002C19.3029 64.0002 13.3333 69.9699 13.3333 77.3335C13.3443 80.2568 14.3253 83.0938 16.1226 85.3995C7.03897 86.0851 0.0143333 93.6484 0 102.758V122.667C0 124.14 1.19399 125.334 2.66666 125.334H10.6666V157.333C10.6666 158.806 11.8606 160 13.3333 160H39.9998C41.4725 160 42.6665 158.806 42.6665 157.333V125.334H50.6665C52.1391 125.334 53.3331 124.14 53.3331 122.667V102.758C53.3188 93.6484 46.2941 86.0851 37.2105 85.3995ZM26.6666 69.3335C31.0849 69.3335 34.6665 72.9152 34.6665 77.3335C34.6665 81.7518 31.0849 85.3335 26.6666 85.3335C22.2482 85.3335 18.6666 81.7518 18.6666 77.3335C18.6713 72.9172 22.2502 69.3385 26.6666 69.3335ZM47.9998 120H42.6665V98.6667H37.3332V154.666H29.3332V125.333H23.9999V154.666H15.9999V98.6667H10.6666V120H5.33331V102.758C5.34098 96.0831 10.75 90.6744 17.4243 90.6668H35.9085C42.5832 90.6744 47.9918 96.0834 47.9995 102.758V120H47.9998Z" fill="#36E199"/>
<path d="M159.839 12.4218C159.569 11.6808 158.985 11.0971 158.244 10.8274L128.911 0.160815C127.526 -0.341849 125.996 0.373148 125.493 1.75814C125.387 2.04947 125.333 2.35714 125.333 2.66714V50.6669H109.333C107.86 50.6669 106.666 51.8609 106.666 53.3336V77.3335C106.666 78.8061 107.86 80.0001 109.333 80.0001H146.666C148.139 80.0001 149.333 78.8061 149.333 77.3335V53.3336C149.333 51.8609 148.139 50.6669 146.666 50.6669H130.666V25.8687L158.244 15.8404C159.628 15.3364 160.342 13.8061 159.839 12.4218ZM143.999 56.0002V74.6668H112V56.0002H125.333V66.6669H130.666V56.0002H143.999ZM130.666 20.1931V6.47446L149.529 13.3338L130.666 20.1931Z" fill="#36E199"/>
<path d="M101.333 88.0001H71.9997C66.1087 88.0001 61.3331 83.2245 61.3331 77.3335C61.3331 71.4425 66.1087 66.6669 71.9997 66.6669H91.3009L80.9593 75.2852L84.3733 79.3815L100.373 66.0482C101.505 65.1059 101.658 63.4252 100.716 62.2942C100.612 62.1699 100.498 62.0556 100.373 61.9519L84.3733 48.6186L80.9593 52.7149L91.3009 61.3332H71.9997C63.1631 61.3332 55.9998 68.4965 55.9998 77.3332C55.9998 86.1698 63.1631 93.3331 71.9997 93.3331H101.333C114.588 93.3331 125.333 104.078 125.333 117.333C125.333 130.588 114.588 141.333 101.333 141.333H55.9998V146.666H101.333C117.533 146.666 130.666 133.533 130.666 117.333C130.666 101.133 117.533 88.0001 101.333 88.0001Z" fill="white"/>
</svg>
