<svg width="16" height="16" viewBox="0 0 16 16" fill="none" xmlns="http://www.w3.org/2000/svg">
<path d="M6.79538 13.0607C6.91071 13.2173 7.08804 13.316 7.28204 13.3313C7.29938 13.3327 7.31671 13.3333 7.33338 13.3333C7.50938 13.3333 7.67938 13.264 7.80471 13.138L11.638 9.30467C11.8987 9.044 11.8987 8.62267 11.638 8.362C11.3774 8.10134 10.956 8.10134 10.6954 8.362L7.41138 11.646L6.03738 9.77267C5.81938 9.476 5.40205 9.41133 5.10538 9.62933C4.80872 9.84733 4.74405 10.2647 4.96205 10.5613L6.79538 13.0607Z" fill="#001514"/>
<path d="M14 2H13.3333V0.666667C13.3333 0.298667 13.0347 0 12.6667 0H12C11.632 0 11.3333 0.298667 11.3333 0.666667V2H4.66667V0.666667C4.66667 0.298667 4.368 0 4 0H3.33333C2.96533 0 2.66667 0.298667 2.66667 0.666667V2H2C0.897333 2 0 2.89733 0 4V14C0 15.1027 0.897333 16 2 16H14C15.1027 16 16 15.1027 16 14V4C16 2.89733 15.1027 2 14 2ZM14.6667 14C14.6667 14.3673 14.3673 14.6667 14 14.6667H2C1.63267 14.6667 1.33333 14.3673 1.33333 14V6.69333H14.6667V14Z" fill="#001514"/>
</svg>
